<?xml version="1.0" encoding="utf-8"?>
<!-- Generator: Adobe Illustrator 27.2.0, SVG Export Plug-In . SVG Version: 6.00 Build 0)  -->
<svg version="1.1" id="Capa_1" xmlns="http://www.w3.org/2000/svg" xmlns:xlink="http://www.w3.org/1999/xlink" x="0px" y="0px"
	 viewBox="0 0 595.28 841.89" style="enable-background:new 0 0 595.28 841.89;" xml:space="preserve">
<style type="text/css">
	.st0{fill:#FFFFFF;}
	.st1{fill:#0E1010;}
	.st2{fill:#0E0F0F;}
	.st3{fill:#0B0C0C;}
	.st4{fill:#010101;}
	.st5{fill:#27241D;}
	.st6{fill:#35312A;}
	.st7{fill:#1D1D1B;}
	.st8{fill:#181715;}
	.st9{fill:#26241F;}
	.st10{fill:#1A1915;}
	.st11{fill:#423C2E;}
	.st12{fill:#111110;}
	.st13{fill:#060605;}
	.st14{fill:#080808;}
	.st15{fill:#4A4640;}
	.st16{fill:#4F4F4F;}
	.st17{fill:#B5B4B3;}
	.st18{fill:#FAC000;}
	.st19{fill:#FED800;}
	.st20{fill:#FFF4C5;}
	.st21{fill:#FEDF01;}
	.st22{fill:#FFF4C6;}
	.st23{fill:#FFE998;}
	.st24{fill:#FFEA8F;}
	.st25{fill:#F7E358;}
	.st26{fill:#FED600;}
	.st27{fill:#F9B900;}
	.st28{fill:#FEDE01;}
	.st29{fill:#FEF3C4;}
	.st30{fill:#FEE844;}
	.st31{fill:#FDED8C;}
	.st32{fill:#FBC801;}
	.st33{fill:#FFE78A;}
	.st34{fill:#FED300;}
	.st35{fill:#F8BA01;}
	.st36{fill:#FCDA02;}
	.st37{fill:#FEF3BE;}
	.st38{fill:#FCEB7F;}
	.st39{fill:#FAE442;}
	.st40{fill:#FEE590;}
	.st41{fill:#FEDC96;}
	.st42{fill:#FED100;}
	.st43{fill:#FEF1B1;}
	.st44{fill:#FDDA02;}
	.st45{fill:#FCE75F;}
	.st46{fill:#FEE191;}
	.st47{fill:#FEE38B;}
	.st48{fill:#F9BC00;}
	.st49{fill:#FFE400;}
	.st50{fill:#FFE869;}
	.st51{fill:#F9BB02;}
	.st52{fill:#E0CF6D;}
	.st53{fill:#FFCD00;}
	.st54{fill:#FFF5CF;}
	.st55{fill:#FFDE72;}
	.st56{fill:#FBCA02;}
	.st57{fill:#F4E7B8;}
	.st58{fill:#F7E197;}
	.st59{fill:#FCDC70;}
	.st60{fill:#F4C70C;}
	.st61{fill:#FCCB02;}
	.st62{fill:#FEE385;}
	.st63{fill:#F6F5F5;}
	.st64{fill:#E8DCB1;}
	.st65{fill:#EDDCA2;}
	.st66{fill:#FEE384;}
	.st67{fill:#F7F7F7;}
	.st68{fill:#E8DBB4;}
	.st69{fill:#EDDB9E;}
	.st70{fill:#FBCD0B;}
	.st71{fill:#F6DD85;}
	.st72{fill:#FCE080;}
	.st73{fill:#DFCE9A;}
	.st74{fill:#CFBB7E;}
	.st75{fill:#F9E8B0;}
	.st76{fill:#FAD75B;}
	.st77{fill:#FCD54A;}
	.st78{fill:#F9DD84;}
	.st79{fill:#FECD02;}
	.st80{fill:#F0DC95;}
	.st81{fill:#FEE387;}
	.st82{fill:#FECD03;}
	.st83{fill:#FFEC59;}
	.st84{fill:#FFE591;}
	.st85{fill:#FFEB98;}
	.st86{fill:#FEEBA9;}
	.st87{fill:#10110F;}
	.st88{fill:#FDD145;}
	.st89{fill:#0F100F;}
	.st90{fill:#FFF5CB;}
	.st91{fill:#FFEF96;}
	.st92{fill:#FCCF68;}
	.st93{fill:#FFE836;}
	.st94{fill:#FFE25F;}
	.st95{fill:#2E2A20;}
	.st96{fill:#FCE497;}
	.st97{fill:#FEFEFE;}
	.st98{fill:#FEFDFD;}
</style>
<g>
	<path class="st0" d="M297.8,496.56c-44.95,0-89.89-0.01-134.84,0.05c-1.64,0-1.96-0.32-1.96-1.96c0.06-48.93,0.06-97.87,0-146.8
		c0-1.64,0.32-1.96,1.96-1.96c90.05,0.05,180.1,0.05,270.16,0c1.64,0,1.96,0.32,1.96,1.96c-0.06,48.93-0.06,97.87,0,146.8
		c0,1.64-0.32,1.96-1.96,1.96C388.01,496.55,342.91,496.56,297.8,496.56z"/>
	<path class="st1" d="M406.78,434.89c-2.33,1.69-4.74,1.32-6.17-0.98c-8.65-13.9-17.28-27.81-25.93-41.71
		c-0.12-0.19-0.31-0.33-0.46-0.5c-0.41,0.38-0.26,0.89-0.26,1.34c-0.01,10.32-0.01,20.63,0,30.95c0,0.47-0.07,0.96,0.2,1.39
		c0.02,2.81,2.22,3.14,4.22,3.61c0.93,0.22,2.05,0.12,2.03,1.46c-0.02,1.33,0.63,3-1.41,3.55c-5.76,0.26-11.51,0.24-17.27,0.01
		c-1.66-0.33-2.04-1.45-1.92-2.97c0.11-1.49,1.09-1.91,2.33-2.13c1.99-0.34,3.73-0.96,3.55-3.51c0.29-1.58,0.12-3.18,0.13-4.76
		c0.02-13.38,0.01-26.76,0-40.14c0-0.87,0.14-1.75-0.14-2.61c-0.29-0.75-0.8-1.35-1.46-1.75c-2.43-1.47-2.68-2.56-1.02-4.83
		c4.96-0.48,9.92-0.28,14.88-0.11c2.59,2.42,3.94,5.67,5.77,8.58c5.01,7.97,9.88,16.02,14.83,24.08c0.81-0.42,0.4-1.13,0.41-1.66
		c0.03-6.52,0.03-13.04,0.02-19.56c-0.01-5.24-0.02-5.23-5.13-6.61c-0.89-0.24-1.58-0.74-1.58-1.8c0.01-1.22-0.37-2.62,1.38-3.05
		c5.78-0.21,11.57-0.2,17.35,0c1.91,0.47,1.47,2.02,1.39,3.27c-0.08,1.25-1.05,1.55-2.19,1.64c-2.63,0.21-2.9,2.24-3.14,4.26
		c-0.36,0.84-0.19,1.73-0.19,2.59c-0.01,16.46-0.01,32.92-0.02,49.38C406.99,433.17,407.2,434.06,406.78,434.89z"/>
	<path class="st2" d="M183.55,397.09c0.54-12.29,9.06-26.05,21.9-29.51c5.24-1.41,10.51-1.41,15.72-0.03
		c5.2,1.37,6.37,3.1,6.55,8.92c0.22,3.39,0.28,6.77-0.03,10.16c-1.6,2.41-4.01,2.68-6.12,0.77c-1.48-1.35-2.18-3.1-2.81-4.9
		c-0.81-2.34-1.91-4.53-3.33-6.54c-2.29-3.23-5.64-3.24-8.1-0.08c-2.59,3.31-3.26,7.33-4.07,11.29c-1.48,7.27-1.38,14.67-0.87,21.97
		c0.41,5.82,1.58,11.67,4.94,16.8c2.3,3.51,7.56,4.16,9.72-0.48c1.62-3.48,2.52-7.17,3.78-10.75c0.51-1.46,1.1-2.81,2.33-3.76
		c2.37-1.84,5.67-0.53,5.85,2.47c0.33,5.22,0.07,10.45-1.19,15.54c-0.77,3.13-3.54,4.46-6.32,5.2c-8.65,2.3-17.04,1.86-24.69-3.29
		c-6.5-4.38-10.29-10.66-12.12-18.16c-0.56-2.28-1.44-4.54-1.15-6.97C183.21,402.85,183.17,399.97,183.55,397.09z"/>
	<path class="st2" d="M255.4,433.99c-1.88-0.66-1.51-2.25-1.36-3.61c0.14-1.38,1.38-1.22,2.39-1.4c3.81-0.68,3.96-0.98,2.74-4.81
		c-0.79-2.48-1.58-4.96-2.37-7.44c-4.3-0.47-8.61-0.38-12.91-0.04c-0.75,2.58-1.61,5.13-2.24,7.74c-0.8,3.31-0.15,4.11,3.45,4.61
		c0.93,0.13,2.13-0.13,2.18,1.23c0.04,1.38,0.75,3.15-1.42,3.74c-5.44,0.24-10.87,0.24-16.31,0c-1.9-0.48-1.35-2.02-1.43-3.3
		c-0.08-1.3,0.87-1.51,1.82-1.77c2.96-0.8,3.14-3.56,3.87-5.78c1.72-5.23,3.22-10.53,4.79-15.8c2.28-7.67,4.34-15.41,6.9-22.99
		c1.58-4.68,2.43-9.6,4.65-14.06c1.89-0.34,3.79-0.42,5.68,0.05c1.83,3.63,2.68,7.6,3.91,11.43c3.39,10.51,6.7,21.05,10,31.59
		c1.37,4.38,2.47,8.84,4.27,13.09c0.55,1.29,1.31,2.21,2.62,2.51c1.03,0.24,1.88,0.45,1.8,1.73c-0.07,1.27,0.5,2.83-1.43,3.3
		C269.78,434.24,262.59,434.27,255.4,433.99z"/>
	<path class="st2" d="M310,434.01c-1.45-0.37-2.03-1.26-1.94-2.79c0.09-1.51,0.95-1.94,2.23-2.29c2.92-0.79,3.19-3.59,3.88-5.82
		c4.41-14.31,8.68-28.66,13-42.99c0.84-2.8,1.78-5.57,2.5-8.4c0.71-2.78,2.88-1.58,4.51-1.79c1.4-0.19,2.25,0.26,2.75,1.87
		c4.54,14.68,9.19,29.31,13.82,43.96c1.15,3.62,2.02,7.32,3.6,10.81c0.55,1.22,1.3,2.01,2.49,2.32c1.09,0.28,1.99,0.6,2.01,1.92
		c0.02,1.28,0.19,2.62-1.42,3.18c-7.19,0.27-14.39,0.24-21.58,0.01c-2.14-0.45-1.39-2.16-1.44-3.44c-0.06-1.47,1.11-1.38,2.15-1.56
		c4.13-0.7,4.3-1.08,2.89-5.09c-0.78-2.22-1.46-4.48-2.19-6.72c-0.27-0.59-0.76-0.75-1.36-0.73c-3.89,0.1-7.78-0.2-11.66,0.16
		c-1.38,3-1.86,6.27-2.68,9.43c-0.63,2.42,1.66,2.33,3.12,2.88c0.8,0.3,2.03-0.33,2.37,0.62c0.44,1.24,0.33,2.64-0.01,3.94
		c-0.06,0.22-0.49,0.34-0.75,0.51C320.88,434.26,315.44,434.24,310,434.01z"/>
	<path class="st3" d="M272.68,371.8c0.29-0.21,0.59-0.42,0.88-0.62c8.43-0.28,16.87-0.09,25.31-0.11
		c5.01-0.01,10.02-0.17,15.03,0.11c0.29,0.2,0.59,0.4,0.88,0.61c0.59,3.95,0.09,7.93,0.26,11.9c-0.07,2.44,0.15,4.89-0.13,7.33
		c-3.76,0.88-4.94,0.62-4.85-3.5c0.09-4.4-3.82-8.26-8.17-8.54c-1.51-0.1-1.44,0.75-1.43,1.77c0.02,5.5,0.01,11,0.01,16.5
		c0,9,0,18.01,0.01,27.01c0,3.4,0.39,3.78,3.78,4.53c0.82,0.18,2.29-0.14,2.31,1.12c0.03,1.36,0.96,3.06-0.84,4.09
		c-7.99,0.28-15.98,0.28-23.97,0c-2.02-0.52-1.37-2.16-1.41-3.47c-0.04-1.35,1.12-1.31,1.99-1.54c4.65-1.22,4.66-1.22,4.67-6.07
		c0-13.76,0-27.52,0-41.28c0-2.62-1.27-3.44-3.82-2.46c-2.27,0.87-3.88,2.52-4.74,4.71c-0.73,1.88-1.63,3.76-1.47,5.9
		c0.16,2.21-1.56,1.47-2.68,1.58c-1.2,0.12-2.24,0.07-2.13-1.66c0.12-1.98,0.06-3.97,0.08-5.96c0.4-3.13,0.06-6.27,0.19-9.41
		C272.47,373.48,272.18,372.6,272.68,371.8z"/>
	<path class="st4" d="M297.81,442.04c37.11,0,74.23,0,111.34,0.02c0.79,0,2.1-0.54,2.31,0.49c0.3,1.43,0.03,2.98-0.05,4.48
		c-0.01,0.11-0.54,0.24-0.83,0.27c-0.47,0.05-0.96,0.02-1.44,0.02c-74.23,0-148.46-0.01-222.69,0.05c-2.3,0-2.93-0.62-2.98-2.93
		c-0.05-2.52,1.26-2.41,2.99-2.41C223.58,442.04,260.7,442.04,297.81,442.04z"/>
	<path class="st5" d="M332.09,465.91c0.27,0.9-1.5,5.83-2.24,6.26c-4.89,2.84-9.81,0.36-11.05-5.69c-0.59-2.89-0.05-5.68,1.65-8.15
		c2.3-3.35,5.65-3.35,9.16-2.62c1.48,0.31,2.3,4.43,1.24,5.55c-0.62,0.65-1.28,0.52-1.88-0.02c-0.23-0.2-0.36-0.51-0.55-0.76
		c-0.69-0.94-0.55-2.92-2.28-2.55c-1.83,0.38-1.64,2.25-1.83,3.71c-0.26,1.77-0.29,3.53,0.01,5.29c0.11,0.7,0.13,1.42,0.35,2.08
		c0.22,0.64,0.48,1.36,1.24,1.63c0.29,0.1,0.68,0.07,0.76-0.31c0.17-0.82,0.57-1.77-0.2-2.42c-0.8-0.68-1.2-1.23-0.26-2.05
		C328.18,465.69,330.14,465.58,332.09,465.91z"/>
	<path class="st6" d="M316.18,455.9c0.86,3.42-1.61,6.52-0.93,9.93c0.1,0.49-0.22,0.93-0.73,1.09c-1.36,0.43-1.16-1.31-2.22-1.57
		c-0.77,1.21-0.2,2.56-0.36,3.81c-0.05,0.44,0.15,0.79,0.66,0.76c0.63-0.03,1.25-0.07,1.73-0.62c0.4-0.45,0.42-1,0.59-1.53
		c0.18-0.55,0.58-0.98,1.26-0.83c0.48,0.11,0.95,0.39,0.96,0.91c0.05,1.43,0.07,2.86-0.05,4.28c-0.04,0.56-0.61,0.93-1.23,0.93
		c-3.1,0.01-6.2,0.01-9.31,0.01c-0.63,0-1.08-0.33-1.26-0.89c-0.24-0.78,0.22-1.16,0.93-1.32c0.27,0.08,0.53,0.19,0.71,0.42
		c0.31,0.29,0.7,0.29,1.1,0.28c1.88-0.08,3.75-0.1,5.62-0.02c1.4,0.06,2.02-0.53,2.08-1.83c-1.93,1.72-2.72,1.88-4.95,1.02
		c-0.67-1.18-0.46-2.48-0.44-3.73c0.04-2.54,0.17-2.64,2.83-2.81c0.61-0.04,0.5-0.48,0.59-0.8c0.01-0.06,0.02-0.13,0.04-0.21
		c0.02-0.07,0.04-0.15,0.06-0.22c-1.02,0.6-2.04,0.99-3.1,0.1c-0.59-1.03-0.43-2.17-0.41-3.27c0.02-1.01-0.14-2.2,1-2.74
		c1.11-0.52,2.18-0.11,3.15,0.55c0.24,0.16,0.38,0.43,0.65,0.56c0.09-0.48-0.04-0.96,0.08-1.43c0.05-0.25,0.15-0.48,0.28-0.69
		C315.7,455.81,315.92,455.77,316.18,455.9z"/>
	<path class="st7" d="M258.29,472.66c-3.46,0.96-7,0.42-10.48,0.29c-1.36-0.05-1.59-1.35-0.04-2.11c0.26,0.12,0.54,0.2,0.71,0.44
		c0.31,0.29,0.7,0.3,1.1,0.29c1.88-0.08,3.76-0.1,5.64-0.02c1.42,0.06,2.01-0.56,2.08-1.85c0-0.06,0.04-0.15,0.01-0.21
		c-0.09-0.25,0-0.13-0.12,0.04c-1.31,1.81-2.45,2.1-4.8,1.28c-0.82-1.66-0.48-3.41-0.37-5.13c0.09-1.28,0.95-1.87,2.14-1.58
		c1.12,0.27,1.22-0.21,1.16-1.06c-0.02-0.31-0.08,0.11-0.12-0.21c-0.01-0.12-0.08-0.05-0.05,0.21c-0.85,0.82-1.76,0.71-2.69,0.2
		c-0.69-0.88-0.59-1.93-0.54-2.93c0.05-1.2-0.36-2.69,1.17-3.27c1.4-0.53,2.59,0.1,3.58,1.16c0.26-0.42-0.06-0.89,0.07-1.33
		c0.02-0.25,0.07-0.49,0.15-0.73c0.11-0.23,0.26-0.43,0.43-0.62c0.72,1.85,1.02,3.64-0.2,5.46c-0.7,1.04-0.11,2.3-0.28,3.45
		c-0.13,0.87,0.46,2.03-0.77,2.49c-1.3,0.48-1.29-1.09-2.19-1.59c-0.77,1.26-0.23,2.6-0.37,3.85c-0.07,0.62,0.33,0.82,0.89,0.77
		c0.94-0.1,1.69-0.51,1.94-1.47c0.29-1.11,0.53-2.15,1.98-1.1C258.62,469.13,258.66,470.9,258.29,472.66z"/>
	<path class="st8" d="M294.72,455.35c0.58,0.34,1.12,0.8,0.65,1.49c-2.52,3.66-0.72,7.69-0.97,11.54c-0.06,0.93,0.91,1.89,2.1,1.84
		c1.49-0.06,2.71-0.66,3.06-2.31c0.55-0.05,0.65,0.34,0.74,0.75c-1.29,2.93-3.07,3.44-6.3,1.81c-0.54-0.52-0.8-1.17-0.88-1.9
		c-0.04-3.63-0.15-7.27,0.05-10.9c0.39-0.94-0.05-1.27-0.94-1.15c-0.62,0.08-1.77-0.42-1.32,1.05c0.34,3.37-0.07,6.76,0.24,10.12
		c0.1,0.21,0.18,0.44,0.25,0.66c1.56,3.27,5.08,4.24,8,2.19c0.13-0.18,0.27-0.35,0.43-0.51c0.72-0.44,1.07-1.14,1.3-1.91
		c0.26-3.49-0.09-6.98,0.19-10.46c0.06-0.3,0.17-0.59,0.32-0.85c-0.5-0.63-0.99-0.39-1.47,0.02c-0.02,0.18-0.07,0.35-0.15,0.51
		c-0.2,0.21-0.42,0.33-0.69,0.12c-0.83-0.14-1-0.69-0.85-1.4c0.17-0.78,0.83-0.6,1.35-0.62c0.8-0.03,1.59,0.01,2.39-0.01
		c0.57-0.02,1.14-0.04,1.43,0.58c0.3,0.64-0.05,1.11-0.58,1.36c-0.9,0.42-0.63,1.19-0.64,1.86c-0.02,2.7-0.01,5.41-0.01,8.11
		c-0.01,3.96-2.58,5.76-6.12,5.66c-3.79-0.11-6.2-1.78-6.44-5.56c-0.13-2.14,0.04-4.3-0.05-6.44c-0.06-1.4,0.59-2.96-0.96-4.13
		c-0.54-0.41-0.13-1.17,0.55-1.51C291.17,455.11,292.94,455.13,294.72,455.35z"/>
	<path class="st9" d="M348.87,464.04c-0.03,5.01-1.64,7.61-5.4,8.69c-2.91,0.83-6.07-0.26-7.55-2.86
		c-2.15-3.81-2.08-7.77-0.02-11.58c1.38-2.56,4.81-3.9,7.37-3.18c3.09,0.87,5.46,3.93,5.59,7.26
		C348.89,462.92,348.87,463.48,348.87,464.04z"/>
	<path class="st10" d="M266.94,455.32c1.32,0.71,1.14,1.45,0.03,2.19c-0.54,4.07-0.46,8.15-0.04,12.23c1.53,0.44,2.44-0.2,2.73-1.69
		c0.15-0.76,0.51-1.16,1.25-1.05c0.78,0.12,0.95,0.76,0.85,1.42c-0.21,1.42,0.53,2.94-0.45,4.28c-3.59,0.3-7.18,0.23-10.78,0.04
		c-1.37-1.67,0.59-1.75,1.19-2.48c0.25-4.15,0.29-8.3-0.03-12.45c-0.83-0.67-1.8-1.3-0.56-2.45
		C263.07,455.07,265,455.17,266.94,455.32z"/>
	<path class="st11" d="M279.88,455.94c1.93-1.1,4.02-0.39,6.02-0.42c0.95-0.01,1.42,1.11,0.63,1.7c-1.16,0.86-0.9,1.9-0.93,2.96
		c-0.08,3.87,0.15,7.74-0.37,11.61c-0.55,4.08-3.73,6.82-7.54,6.14c-1.22-0.22-2.63-0.57-1.83-2.43c0.34-0.24,0.71-0.28,1.1-0.13
		c1.84,1.4,3.58,1.34,4.98-0.3c1.39-1.63,1.98-3.55,2.04-5.7c0.11-4.04-0.32-8.09,0.25-12.11c0.06-0.15,0.17-0.26,0.31-0.31
		c0.15-0.05,0.09-0.29-0.04-0.24c-1.32,0.47-2.64,0.38-3.96,0.06C280.19,456.59,279.96,456.32,279.88,455.94z"/>
	<path class="st12" d="M279.88,455.94c0.17,0.18,0.34,0.37,0.51,0.55c0.53,0.19,1.16,0.25,1.35,0.94c0.44,5.11,0.1,10.23,0.19,15.34
		c-0.39,2.9-0.78,3.36-3.13,3.69c-0.72-0.03-1.35-0.24-1.74-0.9c-0.4-0.02-0.79-0.04-1.19-0.06c0.42-1.53,1.68-1.3,2.44-0.74
		c1.65,1.22,1.88,0.04,2.19-1.06c0.45-1.63,0.25-3.31,0.27-4.98c0.03-2.46,0.05-4.92-0.01-7.38c-0.03-1.57,0.57-3.33-1.22-4.47
		C279.25,456.68,279.42,456.12,279.88,455.94z"/>
	<path class="st13" d="M316.18,455.9c-0.16,0-0.31,0.02-0.47,0.06c-1.68,1.06-3.56,0.34-5.34,0.6c-0.76,0.11-1.79-0.53-2.22,0.68
		c0.04,0.25,0.06,0.48,0.08,0.73c-0.01,4.21,0.26,8.41-0.14,12.61c-0.26,0.59-0.62,1.02-1.35,0.7c-0.17-0.13-0.34-0.27-0.51-0.4
		c0.14-0.07,0.27-0.15,0.41-0.22c0.6-4.13,0.16-8.27,0.23-12.41c0.01-0.42-0.34-0.68-0.66-0.92c-0.41-0.76-0.65-1.83,0.46-1.81
		C309.83,455.55,313.05,454.85,316.18,455.9z"/>
	<path class="st14" d="M257.31,455.51c0,0.15,0,0.3,0,0.45c-1.69,1.06-3.58,0.35-5.36,0.6c-0.77,0.11-1.79-0.53-2.24,0.67
		c0.04,0.25,0.06,0.48,0.08,0.73c-0.02,4.22,0.27,8.43-0.15,12.64c-0.28,0.59-0.64,1-1.37,0.65c-0.17-0.14-0.33-0.28-0.5-0.42
		c0.13-0.06,0.26-0.12,0.39-0.17c0.5-4.4,0.53-8.79-0.02-13.19c-0.66-0.3-1.01-0.78-0.71-1.49c0.26-0.62,0.87-0.57,1.42-0.56
		C251.67,455.45,254.49,455.48,257.31,455.51z"/>
	<path class="st15" d="M300.05,468.46c-0.17-0.19-0.33-0.37-0.5-0.56c-0.08-3.48-0.15-6.97-0.23-10.45
		c0.23-0.17,0.45-0.35,0.68-0.52c0.91-0.02,1.01,0.72,1.01,1.3c0.03,3.27,0.42,6.56-0.22,9.82
		C300.63,468.34,300.38,468.48,300.05,468.46z"/>
	<path class="st16" d="M255.8,370.36c-1.89-0.02-3.78-0.03-5.68-0.05C252.02,369.56,253.92,369.49,255.8,370.36z"/>
	<path class="st17" d="M294.72,455.35c-1.78,0-3.55,0.01-5.33,0.01C291.16,454.71,292.94,454.72,294.72,455.35z"/>
	<path class="st18" d="M372.69,423.92c0.39,4.67,0.75,5.14,5.19,6.34c0.82,0.22,1.24,0.46,1.18,1.39c-0.07,1.01-0.76,0.84-1.35,0.84
		c-4.93,0.01-9.86,0.01-14.79,0c-0.59,0-1.39,0.17-1.18-0.91c0.63-0.57,1.46-0.58,2.22-0.79c3.5-0.97,5.23-3.09,5.24-6.73
		c0.04-11.85,0.05-23.7,0-35.55c-0.01-2.14-0.28-4.3,0.36-6.4c0.65-1.59,1.66-2.79,3.54-2.64c1.51,0.12,2.04-0.64,2.55-1.91
		c0.63-1.54,0.39-3.57,2.28-4.48c3.68,5.15,6.72,10.7,10.08,16.04c2.65,4.21,5.14,8.52,7.7,12.78c-1.44,2.14-3.64,2.94-5.85,1.27
		c-2.42-1.83-4.39-1.9-6.66-0.17c-3.68-5.05-6.71-10.52-10.03-15.8c-0.61-0.16-0.65,0.26-0.65,0.66
		C372.61,399.87,372.3,411.89,372.69,423.92z"/>
	<path class="st19" d="M383.21,402.98c3.19-2.99,2.66-3.51,6.15-0.63c1.81,1.5,3.85,1.24,6.36-0.47c1.49,2.28,2.99,4.56,4.48,6.83
		c0.16-0.01,0.32-0.02,0.48-0.03c0-5.62,0-11.25,0-16.87c0.53-1.82,1.22-1.5,2-0.16c0.04,7.08-0.02,14.17,0.03,21.25
		c0.01,2.25-1.1,4.11-1.85,6.1c-0.5,1.31-1.16,1.42-1.94,0.18c-0.25-0.4-0.51-0.8-0.53-0.83c1.83,2.17,2.43,5.29,3.29,8.3
		c-0.08,0.07,0.12-0.06,0.08-0.13c-2.03-3.79-1.44-7.45,0.51-11.04c0.44-0.81,0.44-1.67,0.44-2.55c-0.01-6.69,0.2-13.38-0.08-20.06
		c-0.17-3.97-0.35-7.93-0.37-11.9c0.04-1.62,0.47-3.15,1.15-4.59c1.32-2.77,4.64-4.07,7.51-3.01c0.18,0.66,0.22,1.3-0.68,1.39
		c-3.7,0.39-4.26,3.1-4.52,6.05c-0.3,0.85-0.16,1.73-0.16,2.6c-0.01,15.89-0.01,31.78-0.01,47.67c0,3.21,0,3.21-3.28,2.91
		c-6.03-9.64-12.06-19.28-18.07-28.93C383.81,404.43,383.54,403.69,383.21,402.98z"/>
	<path class="st20" d="M377.94,373.07c-1.01,1.7-1.38,3.62-1.94,5.48c-0.37,1.23-0.83,2.17-2.48,1.57
		c-1.52-0.55-2.53,0.34-3.24,1.62c-0.77-0.94-1.96-1.07-2.98-1.54c-0.09-0.8,0.07-1.61-0.17-2.39c-0.57-1.2-1.16-2.4-2.53-2.86
		c-1.16-0.39-0.82-1.32-0.84-2.12c1.97-0.72,4.02-0.32,6.02-0.3c2.71,0.04,5.46-0.44,8.14,0.29
		C377.95,372.9,377.96,372.98,377.94,373.07z"/>
	<path class="st21" d="M362.75,430.47c2.6-0.72,4.38-2.13,4.3-5.1c0.47-1.63,0.19-3.29,0.2-4.94c0.08-7.59-0.09-15.17,0.09-22.76
		c0.64-0.68,1.35-0.65,2.09-0.19c0.46,1.96,0.18,3.94,0.19,5.91c0.04,6.34,0.01,12.69,0.02,19.04c0,1.84-0.25,3.63-0.98,5.32
		C367.62,430.16,365.01,431.35,362.75,430.47z"/>
	<path class="st22" d="M410.93,373.4c-0.63,0.05-1.26,0.09-1.89,0.16c-3.98,0.41-5.49,2.17-6.18,7.23
		c-1.17-0.47-1.45-1.97-2.71-2.33c-0.77-3.12-3.41-3.34-5.9-3.78c-0.27-1.17-0.5-2.22,1.35-2.2c4.93,0.06,9.86-0.01,14.8,0.03
		c0.27,0,0.43,0.18,0.62,0.3C410.99,373,410.96,373.2,410.93,373.4z"/>
	<path class="st23" d="M362.75,430.47c5.33,0.4,6.44-2.94,6.59-8.04c0.25-8.25,0.03-16.52,0.01-24.78c-1-1.5-0.63-3.2-0.6-4.81
		c0.03-1.72-0.24-3.26-1.46-4.54c0.11-2.65-0.37-5.31,0.28-7.94c1.62-0.95,2.65-0.75,2.7,1.37c-0.39,1.07-0.38,2.17-0.38,3.28
		c0.01,12.63,0.01,25.27,0.01,37.9c0,6.03-2.18,8.35-8.16,8.65C361.44,430.62,361.91,430.37,362.75,430.47z"/>
	<path class="st24" d="M400.15,378.45c2.04-0.54,2.28,1.01,2.71,2.33c0.02,11.06,0.04,22.13,0.07,33.19c0,0.99-0.3,1.89-0.74,2.73
		c-1.49,2.89-1.89,5.78-0.4,8.83c0.4,0.81,0.45,1.8,0.46,2.76c-1.51-4.22-2.92-8.46-5.17-12.38c0.91,1.33,1.82,2.65,2.87,4.17
		c1.31-3.05,2.69-5.76,2.58-9.11c-0.22-6.52-0.09-13.05-0.11-19.58c-0.68-3-1.33-6.01-1.76-9.07
		C400.49,381.04,400.32,379.74,400.15,378.45z"/>
	<path class="st25" d="M400.66,382.33c1.03,2.94,2.51,5.79,1.76,9.07c-0.79-0.7-1.3-0.29-1.74,0.42
		C400.67,388.66,400.67,385.5,400.66,382.33z"/>
	<path class="st26" d="M227.68,421.99c-0.34,2.11-0.51,4.26-1.06,6.31c-0.96,3.59-4.34,4.06-7.2,5.06
		c-1.18,0.41-2.49,0.44-3.74,0.64c-2.09,0.24-4.19,0.25-6.28-0.01c-14.23-1.77-20.59-11.3-23.8-22.36
		c-0.46-1.57-0.46-3.28-0.67-4.93c-0.3-3.39-0.25-6.77-0.03-10.16c0.87-6.36,2.51-12.43,6.77-17.49c0.78,0.66,0.78,1.67,1.12,2.52
		c0.48,1.2,0.85,2.45,2.13,3.09c0.23,1.41-0.5,2.64-0.74,3.96c-1.58,8.44-1.94,16.86,0.06,25.28c0.76,3.2,1.83,6.26,3.91,8.87
		c0.58,0.54,0.96,1.21,1.29,1.91c2.79,6.72,14.05,10.09,20.84,5.57c2.42-1.61,2.61-4.45,3.23-6.94c0.76-3.03,0.66-6.23,1.54-9.25
		c-1.1,3.75-1.12,7.68-2.07,11.47c-0.89,3.56-3.04,5.49-6.33,6.34c-5.55,1.43-13.34-0.78-16.32-5.76c-0.36-2.23,0.24-4.37,0.61-6.53
		c0.11-0.65,0.31-2.12,1.71-0.99c0.98,3.51,2.3,6.84,4.87,9.55c3.77,3.97,7.88,2.45,10.2-1.28c1.51-2.43,2.3-5.2,3.19-7.91
		c0.61-1.87,0.88-3.87,1.88-5.61c1.37-2.38,3.3-2.4,4.92-0.06C227.92,416.2,228,419.1,227.68,421.99z"/>
	<path class="st27" d="M198.86,424.69c-0.26-0.42-0.53-0.84-0.79-1.26c-3.25-4.6-4.59-9.88-5.12-15.34
		c-0.62-6.4-0.45-12.81,0.94-19.12c0.63-2.83,0.91-5.79,2.38-8.39c0.07-0.24,0.17-0.47,0.28-0.69c0.77-1.34,1.61-2.63,2.62-3.81
		c3.17-3.99,7.27-6.08,12.4-6.08c0.6,0.58,0.87,1.35,1.19,2.1c-3.68-0.34-6,1.67-7.59,4.64c-2.74,5.13-3.5,10.77-3.96,16.47
		c-0.29,5.47-0.3,10.94,0,16.41c0.12,3.06,0.86,6.02,1.44,9.01c-1.61-0.42-1.18,1.1-1.27,1.62c-0.35,2.01-0.42,4.06-0.6,6.09
		C199.68,426.34,199.35,425.42,198.86,424.69z"/>
	<path class="st28" d="M212.76,372.09c-0.67-0.35-1.49-0.63-0.94-1.67c0.21-0.36,0.56-0.51,0.95-0.59c3.98,0.47,7.38,1.89,9.31,5.69
		c1.78,3.67,2.37,7.51,1.71,11.54c-1.82-0.21-2.28-1.73-2.92-3.07c-1.33-2.78-2.22-5.76-4.05-8.32
		C215.72,374.14,214.46,372.89,212.76,372.09z"/>
	<path class="st29" d="M221.53,375.53c-2-3.24-5.1-4.69-8.72-5.28c-0.63-1.13,0.01-1.74,0.92-2.24c3.62-0.25,7.03,0.49,10.22,2.2
		c0.97,0.52,1.99,1.04,1.85,2.42c-0.79,1.54-2.47,1.99-3.68,3.02C221.9,375.72,221.7,375.68,221.53,375.53z"/>
	<path class="st30" d="M194.57,384.2c-0.45,0.14-0.93,1.31-1.34,0.04c-0.54-1.72-1.65-3.27-1.55-5.18c2-2.99,4.56-5.4,7.69-7.19
		c2.02,1.64,2.02,1.64-0.2,4.45c-0.84,1.13-1.74,2.23-2.2,3.6l0.03-0.03C195.85,381.14,195.98,383.1,194.57,384.2z"/>
	<path class="st31" d="M198.91,376.08c1.17-1.29,2.13-2.61,0.46-4.21c4.37-2.82,9.12-4.23,14.36-3.86c-0.33,0.74-0.9,1.38-0.92,2.24
		c-0.33,0.06-0.66,0.12-0.99,0.18c-5.11,0.08-9.15,2.33-12.46,6.08C199.14,376.43,199,376.29,198.91,376.08z"/>
	<path class="st32" d="M221.92,375.58c0.81-1.61,2.4-2.2,3.87-2.96c0.6,0.72,0.36,1.6,0.46,2.41c0.47,2.08-0.16,4.23,0.35,6.31
		c0.02,1.24,0.1,2.48,0.04,3.71c-0.05,1.13-0.29,2.22-1.85,2.04c-1.34-1.21-1.15-2.92-1.18-4.42
		C223.58,380.15,222.93,377.85,221.92,375.58z"/>
	<path class="st33" d="M221.92,375.58c1.46,1.48,1.82,3.36,1.88,5.31c0.06,2.12,0.28,4.2,0.99,6.21c-0.34-0.01-0.68-0.02-1.02-0.04
		c-0.62-3.87-0.37-7.91-2.26-11.54C221.66,375.53,221.79,375.55,221.92,375.58z"/>
	<path class="st34" d="M257.36,430.51c3.98-1.42,4.44-2.18,3.3-6.2c-0.86-3.03-1.93-6.01-2.91-9.01c-0.23-0.41-0.86-0.15-1.04-0.63
		c1.29-1.94-0.7-1.75-1.52-2.31c-3.21-0.53-6.43-0.11-9.64-0.25c-1.25-0.06-2.52,0.18-3.73-0.29c-0.69-0.4-0.69-1.03-0.49-1.66
		c1.22-3.67,2.01-7.47,3.47-11.06c0.28-0.55,0.38-1.16,0.48-1.77c1.37-4.37,2.64-8.77,3.8-13.2c0.37-1.55,0.86-3.05,2.07-4.19
		c0.78-0.73,0.65-1.72,0.79-2.65c0.32-2.23,1.09-4.25,3.09-5.57c3.6,11.31,7.2,22.63,10.79,33.94c2.11,6.65,4.17,13.31,6.33,19.94
		c0.7,2.14,1.65,4.18,4.21,4.74c0.88,0.19,0.83,0.85,0.75,1.49c-0.1,0.84-0.8,0.62-1.31,0.62c-6.38,0.01-12.75,0-19.13-0.01
		c-0.62,0-1.37,0.12-1.15-0.93c2.19-0.98,4.5-0.33,6.75-0.45c1.8-0.09,3.33-0.51,4.29-2.14c0.1-0.36-0.54-0.29-0.23-0.21
		c0.14,0.04,0.15,0.09,0.14,0.17c-0.17,0.87-0.84,1.3-1.56,1.55C262.4,431.31,259.88,431.45,257.36,430.51z"/>
	<path class="st35" d="M255.86,412.39c0.31,0.01,0.61,0.01,0.92,0.02c0.6,0.02,1.4-0.14,1.62,0.56c0.25,0.81-0.76,0.78-1.13,1.22
		c-0.15,0.18-0.28,0.36-0.42,0.54c-2.66,0.69-5.36,0.12-8.04,0.31c-1.97,0.14-3.97-0.29-5.92,0.23c-0.89,3.11-1.96,6.18-2.63,9.33
		c-0.8,3.77,0.52,5.4,4.4,5.97c0.61,0.09,1.31-0.13,1.32,0.88c0.01,0.87-0.42,1.06-1.17,1.05c-4.77-0.02-9.55-0.01-14.32-0.01
		c-0.65,0-1.11-0.14-0.92-0.94c1.68-1.03,4.07-0.48,5.34-2.4c2.01-3.58,2.56-7.68,4.02-11.45c0.48-1.25,0.93-2.54,1.26-3.85
		c0.24-0.94,0.64-1.84,1.85-1.9c3.86-0.05,7.71-0.02,11.56-0.02C254.38,411.93,255.19,411.83,255.86,412.39z"/>
	<path class="st36" d="M230.48,430.46c3.25-1.19,3.81-4.29,4.68-6.99c1.94-6,3.61-12.08,5.4-18.13c0.11-0.37,0.34-0.71,0.52-1.06
		c0.61-0.49,1.22-1.01,2.04-0.38c0.02,2.53-1.2,4.73-1.86,7.08c-1.56,5.5-3.43,10.9-5.15,16.35c-0.25,0.78-0.64,1.44-1.07,2.11
		C233.71,430.64,232.36,431.76,230.48,430.46z"/>
	<path class="st37" d="M255.03,371.73c-1.34,2.22-2.78,4.4-2.39,7.2c0.06,0.45,0.12,1.2-0.33,1.28c-2.31,0.4-1.79,2.66-2.73,3.95
		c-0.78,0.66-1.57,0.73-2.37,0.03c0.64-4.21,2.27-8.16,3.58-12.17C251.27,370.5,253.52,371.02,255.03,371.73z"/>
	<path class="st38" d="M247.21,384.18c0.79-0.01,1.58-0.02,2.37-0.03c-0.07,2.82-1.55,5.26-2.08,7.97
		c-0.37,1.85-1.12,3.61-1.71,5.42c-1.01-0.06-1.54-0.93-2.3-1.4C244.6,392.12,245.66,388.07,247.21,384.18z"/>
	<path class="st39" d="M243.49,396.15c1.25-0.34,1.77,0.55,2.3,1.4c0.06,0.54,0.11,1.08-0.37,1.5c-0.79,0.76-1.1,1.73-1.31,2.78
		c-0.14,0.73-0.02,1.7-1.08,1.96c-0.65,0.17-1.3,0.33-1.95,0.5C241.58,401.48,242.6,398.84,243.49,396.15z"/>
	<path class="st40" d="M257.36,430.51c1.66,0.02,3.32,0.01,4.98,0.06c1.96,0.05,3.56-0.5,4.42-2.74c-0.12,2.41-1.45,3.56-4.13,3.66
		c-2.37,0.09-4.75,0.04-7.12,0.05C255.31,429.71,256.82,430.99,257.36,430.51z"/>
	<path class="st41" d="M230.48,430.46c1.69,0.26,3.27,0.14,4.46-1.29c0.35-0.04,0.61-0.01,0.35,0.44c-1.41,2.1-3.63,1.85-5.72,1.94
		C229.32,430.73,229.62,430.37,230.48,430.46z"/>
	<path class="st42" d="M335.37,371.75c3.55,11.24,7,22.51,10.67,33.71c2.34,7.15,4.21,14.45,6.98,21.46
		c0.65,1.65,1.63,2.92,3.41,3.35c0.91,0.22,1.12,0.72,1.02,1.54c-0.13,1.04-0.94,0.67-1.48,0.67c-6.21,0.02-12.42,0.02-18.64-0.01
		c-0.58,0-1.6,0.43-1.42-0.89c2.19-1.06,4.52-0.32,6.78-0.5c1.69-0.14,3.28-0.35,4.03-2.13c0.11-0.34-0.45-0.22-0.14-0.16
		c0.14,0.03,0.17,0.09,0.11,0.21c-0.26,0.59-0.55,1.15-1.21,1.38c-2.82,0.99-5.65,1.11-8.49,0.1c4.41-0.98,5.2-2.4,3.8-6.77
		c-0.89-2.77-1.76-5.54-2.64-8.31c-0.27-0.68-1.02-0.13-1.4-0.53c0.53-1.29,0.1-2.09-1.26-2.42c-2.95-0.7-5.94-0.14-8.9-0.33
		c-1.48-0.09-2.99,0.26-4.43-0.36c-0.78-0.6-0.63-1.39-0.37-2.15c0.78-2.23,1.27-4.55,2.06-6.78c1.58-4.61,2.87-9.3,4.24-13.98
		c0.55-2.15,0.83-4.49,1.9-6.36c1.52-2.67,2.38-5.5,3.37-8.34C333.68,373.2,333.98,371.92,335.37,371.75z"/>
	<path class="st35" d="M335.86,412.39c0.77,0.19,1.9-0.46,2.27,0.59c0.32,0.91-1.07,0.98-1.28,1.73c-3.75,0.68-7.53,0.11-11.29,0.33
		c-0.83,0.05-1.74-0.36-2.48,0.34c-0.81,2.9-1.72,5.77-2.4,8.69c-0.95,4.06,0.32,5.91,4.29,6.48c0.7,0.1,1.46-0.12,1.4,1.03
		c-0.06,1.19-0.9,0.89-1.54,0.89c-4.62,0.02-9.23,0.02-13.85,0c-0.63,0-1.58,0.31-1.36-0.96c0.3-0.28,0.66-0.45,1.07-0.45
		c3.75,0.02,5.27-2.43,6.15-5.56c1.02-3.67,2.3-7.26,3.39-10.91c0.31-1.04,0.51-2.21,1.8-2.62c3.94-0.13,7.88-0.03,11.81-0.05
		C334.54,411.93,335.27,411.86,335.86,412.39z"/>
	<path class="st43" d="M335.37,371.75c-1.42,2.27-2.82,4.54-2.38,7.42c0.05,0.29,0.01,0.82-0.15,0.89c-3.8,1.83-2.46,6.08-4.22,8.86
		c-0.98,0.6-1.91,1.02-2.41-0.53c1.16-5.48,3.27-10.69,4.57-16.15C331.22,370.38,333.7,370.98,335.37,371.75z"/>
	<path class="st44" d="M310.87,430.46c2.45-0.91,3.32-3.06,4-5.28c2.29-7.43,4.52-14.87,6.78-22.3c0.79-0.6,1.49-0.62,2.05,0.32
		c-0.16,3.21-1.56,6.1-2.47,9.1c-1.29,4.24-2.64,8.46-3.95,12.7c-0.52,1.66-0.88,3.43-2.25,4.66
		C313.82,430.71,312.55,431.74,310.87,430.46z"/>
	<path class="st45" d="M323.48,403.34c-0.48-0.67-1.18-0.47-1.84-0.46c1.52-4.83,3.04-9.66,4.56-14.49
		c0.65,0.87,1.57,0.53,2.41,0.53c-1.09,3.85-2.17,7.71-3.28,11.55c-0.24,0.82-0.58,1.61-0.88,2.41
		C324.03,402.82,323.99,403.58,323.48,403.34z"/>
	<path class="st46" d="M323.48,403.34c0.43,0.08,0.29-1.09,0.98-0.44c-0.81,2.84-1.62,5.68-2.43,8.53c0.3,0.53-0.28,0.71-0.43,1.06
		c-1.36,4.36-2.77,8.7-4.07,13.07c-1.45,4.88-2.83,5.97-7.91,5.97c-0.28-1.17,0.49-1.1,1.24-1.06c3.03,0.17,4.47-0.63,5.31-3.23
		c2.42-7.48,4.78-14.98,7.15-22.47C323.47,404.31,323.44,403.81,323.48,403.34z"/>
	<path class="st47" d="M336.99,430.46c1.66,0.03,3.32,0.05,4.98,0.1c2.15,0.06,4.16-0.15,5.24-3.21c-0.24,2.88-1.57,4.03-4.18,4.13
		c-2.37,0.1-4.74,0.06-7.11,0.08C335.57,430.52,336.14,430.35,336.99,430.46z"/>
	<path class="st48" d="M299.45,426.34c0.21,2.88,2.36,3.46,4.64,3.87c0.85,0.15,1.79,0.03,1.67,1.4c-0.12,1.37-1.13,0.86-1.78,0.87
		c-6.83,0.03-13.67,0.04-20.5-0.01c-0.6,0-1.75,0.62-1.66-0.87c1.78-1.13,3.86-0.62,5.78-1.08c4.13-0.97,5.82-2.4,5.85-6.58
		c0.06-6.98,0.44-13.97-0.27-20.96c-0.4-3.87-0.21-7.79-0.15-11.68c-0.07-3.68-0.08-7.35,0.02-11.03c-0.35-2.53,1.18-3.68,3.26-4.45
		c0.88-0.33,1.77-0.61,2.7-0.79c1.49-0.17,2.99-0.08,4.48-0.1c3.8,0.28,7.17,1.29,8.9,5.14c0.78,1.61,0.33,3.57,1.42,5.1
		c0.04,1.35,0.09,2.7,0.11,4.04c0.01,0.55,0.04,1.14-0.8,1.16c-0.7,0.02-1.17-0.07-1.35-0.92c-0.44-2.09-0.61-4.25-1.61-6.19
		c-1.53-2.95-3.47-5.35-7.2-5.35c-0.6-0.31-1.26-0.11-1.88-0.2c-1.49-0.21-1.88,0.43-1.88,1.88c0.05,15.2,0.03,30.39,0.03,45.59
		C299.23,425.59,299.22,425.98,299.45,426.34z"/>
	<path class="st49" d="M283.71,430.48c1.82-0.97,4.31-1.24,4.31-4.11c0.47-4.33,0.11-8.68,0.2-13.02c0.06-2.61-0.02-5.23,0.03-7.84
		c1.52-1.36,3.36-1.24,5.2-1.08c0.58,1.79,0.24,3.63,0.26,5.44c0.05,4.69-0.02,9.38,0.02,14.07
		C293.78,429.31,289.18,431.94,283.71,430.48z"/>
	<path class="st50" d="M283.71,430.48c1.85,0.25,3.65-0.13,5.44-0.46c2.46-0.44,4.06-2.68,4.07-5.68c0.03-6.68,0-13.35,0-20.03
		c-0.43-0.96-3.69-4.24-4.94-4.96c-0.02-2.68-0.19-5.35,0.1-8.03c1.77-1.01,3.53-1.02,5.3,0.01c0.17,10.73,0.72,21.45,0.51,32.18
		c-0.11,5.34-2.54,7.58-8.54,7.98c-1.27,0.08-2.55,0.06-3.82,0.09C281.56,429.71,283.17,431,283.71,430.48z"/>
	<path class="st51" d="M284.51,377.93c-4.65-0.35-7.77,5.02-8.54,9.37c-0.2,1.12,0.61,3.16-1.85,3c-0.74-1.69,0.22-3.39-0.03-5.09
		c0.15-6.2,2.88-10.34,10.35-10.29c0.71,0.01,1.43-0.03,2.13,0.06c1.43,0.18,2.21,0.83,1.63,2.39
		C287.08,378.23,285.68,377.33,284.51,377.93z"/>
	<path class="st52" d="M313.44,372.81c0.12-0.03,0.23-0.04,0.35-0.01c0,4.12,0.01,8.24,0.01,12.36c-2.14-1.01-1.12-3.23-1.84-4.79
		c0.77-1.39,0.69-2.91,0.73-4.43C312.74,374.87,312.48,373.69,313.44,372.81z"/>
	<path class="st53" d="M411.02,443.11c0,1.06,0.01,2.12,0.01,3.18c-0.71,0.55-1.54,0.28-2.32,0.28
		c-73.84,0.01-147.69,0.01-221.53,0.01c-0.71,0-1.44,0.09-2.14-0.12c-0.21-1.53,0.85-1.93,2-2.12c1.18-0.2,2.39-0.1,3.59-0.1
		c71.26,0,142.52,0,213.79,0c1.2,0,2.39,0.05,3.58-0.07c0.9-0.21,1.6-0.82,2.42-1.22C410.67,442.79,410.87,442.84,411.02,443.11z"/>
	<path class="st54" d="M410.58,443.1c-0.46,0.46-0.92,0.91-1.38,1.37c-0.84,0.37-1.73,0.19-2.6,0.19
		c-72.71,0.01-145.42,0.01-218.14,0c-1.39,0-2.95,0.41-3.84-1.21c-0.09-0.13-0.1-0.27-0.01-0.4c0.73-0.51,1.55-0.26,2.33-0.26
		c73.79-0.01,147.57-0.01,221.36,0C409.05,442.79,409.89,442.49,410.58,443.1z"/>
	<path class="st55" d="M184.61,443.45c1.29,0.94,2.75,1.01,4.29,1.01c72.55-0.02,145.1-0.02,217.66-0.02c0.88,0,1.76,0.02,2.63,0.03
		c-0.89,0.83-1.98,0.42-2.97,0.42c-72.5,0.02-145.01,0.02-217.51,0.02c-1.43,0-2.93-0.23-3.8,1.33c-0.09,0.26-0.21,0.28-0.35,0.03
		C184.59,445.34,184.6,444.4,184.61,443.45z"/>
	<path class="st56" d="M327.3,472.19c-3.54,0.76-5.86-0.63-7.17-4.31c1.07-1.81,0.61-3.85,0.8-5.78c0.45-1.79,0.96-3.56,2.57-4.7
		c0.6-0.43,1.2-1.19,2.09-0.48c-1.57,1.32-2.2,3.03-2.16,5.04c0.07,3.14-0.52,6.37,1.41,9.22
		C325.45,472.05,326.6,471.56,327.3,472.19z"/>
	<path class="st57" d="M325.6,456.92c-3.06,0.4-3.21,3.11-4.13,5.2c-0.32,0.84-0.57,1.82-1.8,0.96c0.05-5.57,5.84-8.78,10.1-6.33
		c-0.82,2-1.83,0.04-2.73,0.13C326.55,456.9,326.07,456.91,325.6,456.92z"/>
	<path class="st58" d="M327.3,472.19c-0.96,0.01-2.01,0.23-2.46-1.01c0.99,0.24,2.27,0.65,2.67-0.55c0.44-1.32,0.68-2.87-0.76-4.19
		c1.52,0,2.9-0.22,4.16,0.06c1.17,0.26,0.07,0.39-0.17,0.52c-0.66,0.32-0.77,0.99-0.84,1.57c-0.2,1.73-1.19,2.83-2.65,3.61
		L327.3,472.19z"/>
	<path class="st59" d="M319.66,463.08c0.88,0.19,1.32-0.41,1.8-0.96c0.01,1.32,0.01,2.64,0.02,3.95c0.01,0.95-0.24,1.7-1.35,1.81
		C319.23,466.35,319.6,464.7,319.66,463.08z"/>
	<path class="st60" d="M327.02,456.89c0.89-0.55,1.88,1.15,2.73-0.13c0.47,0.23,0.76,0.65,0.71,1.13c-0.11,0.94,0.74,2.35-0.38,2.72
		c-1.17,0.38-1.09-1.19-1.56-1.92C328.11,458.03,327.53,457.48,327.02,456.89z"/>
	<path class="st56" d="M327.25,472.21c0.89-1.12,2.08-2.03,1.97-3.75c-0.05-0.78,0.6-1.39,1.52-1.44
		C330.62,469.46,330.85,472.12,327.25,472.21z"/>
	<path class="st61" d="M316.18,469.12c0.13,3.03,0.13,3.03-2.9,3.02c-2.05-0.01-4.11-0.04-6.16-0.07c1.46-1.38,1.89-3.05,1.77-5.04
		c-0.15-2.43-0.08-4.89-0.02-7.33c0.08-2.77,0.61-3.26,3.39-3.3c0.87-0.01,1.74,0.02,2.6-0.04c0.27-0.07,0.55-0.07,0.82,0.02
		c0,1.1,0,2.2,0,3.52c-0.41-0.66-0.63-1.25-1.04-1.65c-0.85-0.82-1.99-1.07-3.08-0.74c-1.03,0.31-0.51,1.35-0.55,2.06
		c-0.07,1.18,0,2.36,0.02,3.55c1.11,1.02,2.17,0.18,3.25-0.09c0,0.87,0,1.74,0,2.76c-0.46-0.43-0.77-0.94-1.21-1.1
		c-1.17-0.42-2.22-0.52-2.1,1.32c0.11,1.58,0.07,3.18,0.09,4.77C313.17,471.5,314.82,470.76,316.18,469.12z"/>
	<path class="st62" d="M315.36,456.43c-1.09,1.06-2.43,0.43-3.63,0.45c-1.62,0.03-2.32,0.64-2.29,2.28c0.06,2.94-0.12,5.9,0.07,8.83
		c0.13,2.04-0.5,3.36-2.39,4.08c-0.27-0.03-0.53-0.06-0.8-0.1c0.14-0.23,0.28-0.47,0.43-0.7c0.38-0.02,0.71-0.13,0.89-0.5
		c0.39-4.61,0.39-9.22,0-13.83l-0.06-0.06c-0.01-0.36,0.16-0.68,0.5-0.67C310.5,456.27,312.95,455.86,315.36,456.43z"/>
	<path class="st63" d="M312.23,462.42c-0.58-0.96-0.26-1.9-0.29-2.8c-0.02-0.46-0.32-1.17,0.54-1.3c0.66-0.09,1.36,0.07,1.66,0.64
		c0.26,0.48,0.59,1.49,0.09,1.66C313.26,460.94,313.33,462.1,312.23,462.42z"/>
	<path class="st64" d="M316.18,469.12c-1.3,2.52-2.3,2.85-5.13,1.67c2.27,0.23,4.21-0.15,4.83-2.82
		C316.38,468.35,316.17,468.75,316.18,469.12z"/>
	<path class="st65" d="M314.27,463.03c-1.06,1.08-2.12,2.02-3.25,0.09c1,0.04,2.08,0.41,2.75-0.77c0.1-0.17,0.14-0.76,0.5-0.24
		C314.41,462.31,314.27,462.71,314.27,463.03z"/>
	<path class="st56" d="M257.24,456.38c0,1.1,0,2.2,0,3.31c-0.66-0.09-0.45-0.74-0.72-1.08c-0.84-1.06-2-1.34-3.18-1.14
		c-1.46,0.24-0.68,1.53-0.77,2.34c-0.13,1.09-0.01,2.2,0,3.3c1.19,0.69,2.27,0.93,2.85-0.74c1.08,1.02,0.08,2.25,0.44,3.4
		c-0.79-0.83-1.57-1.61-2.69-1.22c-1.26,0.44-0.53,1.62-0.61,2.45c-0.11,1.25,0.01,2.52,0.04,3.78c2.08,0.66,3.77,0.09,5.07-1.65
		c0.11,3.02,0.11,3.02-2.9,3.01c-2.04-0.01-4.07-0.04-6.11-0.07c1.42-1.53,1.89-3.32,1.76-5.4c-0.14-2.3-0.08-4.61-0.02-6.92
		c0.07-2.84,0.59-3.32,3.38-3.35c0.88-0.01,1.75,0.03,2.63-0.04C256.7,456.28,256.97,456.29,257.24,456.38z"/>
	<path class="st66" d="M256.92,456.43c-0.82,1.01-1.95,0.53-2.9,0.45c-2.24-0.18-3.2,0.56-3.05,2.93c0.17,2.68-0.09,5.4,0.08,8.08
		c0.13,2.04-0.6,3.35-2.38,4.18c-0.28-0.03-0.56-0.06-0.84-0.09c0.14-0.24,0.29-0.49,0.43-0.73c0.39-0.01,0.73-0.1,0.92-0.49
		c0.4-4.61,0.39-9.22,0-13.83l-0.06-0.06c-0.01-0.36,0.17-0.68,0.51-0.67C252.06,456.27,254.51,455.86,256.92,456.43z"/>
	<path class="st67" d="M253.77,462.46c-0.53-1.06-0.24-2.02-0.28-2.94c-0.02-0.48-0.25-1.19,0.68-1.21
		c0.69-0.01,1.35,0.18,1.54,0.85c0.14,0.49,0.79,1.33-0.14,1.59C254.64,461.01,254.73,462.08,253.77,462.46z"/>
	<path class="st68" d="M257.68,469.13c-1.17,2.47-2.27,2.83-5.07,1.65c1.98,0.13,3.86,0.05,4.64-2.28c0.08-0.22,0.19-0.8,0.44-0.08
		C257.77,468.63,257.69,468.89,257.68,469.13z"/>
	<path class="st69" d="M255.43,462.37c0.09,0.81,0.1,1.66-1,1.65c-0.69-0.01-1.84,0.58-1.85-0.91
		C253.62,463.24,254.66,463.34,255.43,462.37z"/>
	<path class="st70" d="M293.65,468.87c0.22,0.41,0.45,0.82,0.67,1.24c1.19,1.56,2.79,0.8,4.24,0.7c0.49-0.04,0.95-0.59,1.46-0.02
		c-3.05,2.49-7.17,1.62-9.06-1.92c0.46-3.19,0.01-6.41,0.24-9.6c0.09-1.25-0.04-2.92,2.15-2.4
		C293.77,460.86,293.18,464.88,293.65,468.87z"/>
	<path class="st71" d="M293.39,456.84c-1.38,0.15-1.54,1.1-1.53,2.23c0.03,2.54,0.03,5.08-0.01,7.62c-0.01,0.81,0.3,1.83-0.9,2.18
		c-0.06-0.15-0.13-0.3-0.19-0.46c-0.31-3.06-0.04-6.13-0.15-9.19c-0.03-0.77,0.21-1.58-0.24-2.31c-0.27-0.24-1.22-0.6-0.52-0.77
		c1.41-0.34,3.02-0.35,4.42,0c0.73,0.18-0.2,0.54-0.51,0.73C293.63,457.11,293.5,457.11,293.39,456.84z"/>
	<path class="st72" d="M300.41,468.32c0.02-3.24,0.05-6.47,0.03-9.71c0-0.57,0.32-1.29-0.44-1.68c0,0-0.04-0.16-0.04-0.16
		c0.63-1.17,1.56-0.49,2.4-0.38c-0.12,0.16-0.23,0.32-0.35,0.48c-0.25,0.15-0.42,0.35-0.52,0.62c-0.22,3.05-0.02,6.11-0.11,9.16
		c-0.03,0.97,0.28,2.06-0.78,2.75C300.07,469.12,300.19,468.73,300.41,468.32z"/>
	<path class="st70" d="M300.47,469.43c0.95-3.39,0.14-6.85,0.44-10.26c0.07-0.79-0.46-1.78,0.63-2.3c0.06,4,0.29,7.99-0.12,11.99
		c-0.24,0.67-0.29,1.51-1.31,1.52C299.52,469.79,300.06,469.63,300.47,469.43z"/>
	<path class="st73" d="M300.47,469.43c-0.12,0.32-0.24,0.63-0.36,0.95c0.02,0.15-0.02,0.29-0.1,0.41c-1.57,0.61-3.21,0.63-4.84,0.4
		c-0.53-0.08-1.42-0.05-0.85-1.07c3.18,1.33,4.57,0.93,5.73-1.65c0.12-0.04,0.24-0.09,0.36-0.15
		C300.43,468.69,300.45,469.06,300.47,469.43z"/>
	<path class="st74" d="M302.36,456.39c-0.8,0.13-1.68-0.25-2.39,0.38c-0.24-0.02-0.57,0.04-0.68-0.09
		c-0.18-0.21-0.34-0.65,0.18-0.68c0.95-0.06,1.91-0.03,2.86-0.02c0.06,0,0.19,0.09,0.18,0.12
		C302.47,456.2,302.41,456.29,302.36,456.39z"/>
	<path class="st61" d="M347.89,466.93c-1.86,4.87-5.49,6.57-9.29,4.38c-1.22-0.7-1.99-1.75-2.56-2.98c1.08-2.11,0.46-4.41,0.7-6.61
		c0.16-1.1,0.49-2.16,1.03-3.13c1.15-2.06,2.7-2.67,5.35-2.15c0.1,0.26,0.04,0.48-0.17,0.66c-2.28,0.35-3.16,1.93-3.39,3.99
		c-0.37,3.28-0.48,6.53,1.55,9.42c1.43,1.13,2.35,0.16,3.19-0.83c0.84-1,1.07-2.29,1.31-3.54c0.34-1.94,0.27-3.85-0.15-5.77
		c-0.19-0.87-0.53-1.92,0.95-2.08c0.99,0.87,1.23,2.11,1.58,3.29C348.12,463.37,348.26,465.15,347.89,466.93z"/>
	<path class="st75" d="M343.24,456.82c-2.34-0.78-3.84-0.23-4.96,1.96c-0.45,0.88-0.68,1.89-1,2.84c-0.39,0.8-0.14,1.66-0.2,2.49
		c-0.09,1.21-0.65,1.46-1.67,0.89c-0.27-2.52,0.02-4.91,1.68-6.95c1.97-2.42,4.95-2.89,7.6-1.25
		C344.21,457.28,343.73,457.27,343.24,456.82z"/>
	<path class="st76" d="M343.24,456.82c0.48-0.01,0.97-0.02,1.45-0.03c0.84,0.19,1.34,0.77,1.7,1.49c-1.19,0.46-0.51,1.32-0.36,1.99
		c0.47,2.08,0.66,4.15-0.02,6.22c-0.75-0.55-0.68-1.39-0.71-2.16c-0.03-0.84-0.23-1.55-0.94-2.04c-0.6-1.74-1.44-3.42-1.41-5.33
		C343.04,456.9,343.13,456.85,343.24,456.82z"/>
	<path class="st77" d="M335.4,465c1.01,0.09,1.42-0.37,1.41-1.38c-0.01-0.68-0.18-1.44,0.46-1.99c0.01,1.49-0.05,2.99,0.05,4.47
		c0.07,1.1-0.34,1.8-1.29,2.25C335.73,467.24,335.15,466.2,335.4,465z"/>
	<path class="st78" d="M262.02,472.09c-1.04-0.27-1.09-0.45-0.71-0.57c1.46-0.48,1.26-1.64,1.26-2.74
		c0.01-3.41-0.02-6.82,0.02-10.22c0.01-0.98-0.02-1.86-1.16-2.55c1.6,0,3.23-0.17,4.79,0.06c0.97,0.15-0.08,0.52-0.16,0.81
		c-0.22,0.16-0.41,0.34-0.57,0.57c-0.78,0.82-0.76,1.85-0.77,2.88c-0.02,2.83,0.01,5.67-0.03,8.5
		C264.67,470.63,263.93,471.83,262.02,472.09z"/>
	<path class="st79" d="M262.02,472.09c1.64-0.77,2.15-2.02,2.05-3.83c-0.16-2.92-0.01-5.85-0.06-8.78
		c-0.02-1.23,0.28-2.18,1.54-2.61c0.33,4.32,0.06,8.64,0.15,12.95c0.46,1.19,1.98,1.57,3.47,0.94c0.57-0.24,0.71-1.1,1.49-0.98
		c0.5,1.99-0.29,2.6-2.28,2.42C266.27,472.01,264.14,472.12,262.02,472.09z"/>
	<path class="st80" d="M265.58,470.8c0.13,0.01,0.26-0.02,0.37-0.07c2.18,0.24,4.05-0.07,4.53-2.78c0.42,0.66,0.18,1.26,0.17,1.83
		C269.68,471.57,267.3,472.05,265.58,470.8z"/>
	<path class="st81" d="M281.23,456.95c-0.28-0.15-0.56-0.31-0.84-0.46c1.58-0.21,3.16-0.23,4.75-0.05c0.07,0.01,0.12,0.1,0.19,0.15
		c-0.17,0.12-0.35,0.24-0.52,0.37c-1,0.7-0.89,1.76-0.9,2.77c-0.04,3.16-0.02,6.33-0.02,9.49c0,1.94-0.45,3.78-1.33,5.48
		c-1.09,2.1-2.46,2.49-4.22,1.37c2.24,0.34,2.74-1.15,3.04-2.87C281.53,467.78,281.81,462.36,281.23,456.95z"/>
	<path class="st82" d="M278.33,476.06c2.09,1.29,3.17-0.04,3.86-1.68c0.71-1.68,1.03-3.5,1-5.36c-0.04-3.19,0.01-6.38-0.02-9.56
		c-0.01-1.23,0.24-2.22,1.63-2.5c-0.05,3.89-0.12,7.78-0.15,11.67c-0.02,2.18-0.34,4.27-1.51,6.16c-1.22,1.96-3.69,2.86-5.81,2.17
		c-1.01-0.33-0.7-0.83-0.28-1.4C277.6,475.42,277.97,475.75,278.33,476.06z"/>
	<path class="st83" d="M367.57,397.57c0-3.03,0-6.05,0-9.08c1.34,0.16,1.9,0.86,1.84,2.25c-0.09,2.3-0.05,4.6-0.06,6.9
		C368.76,397.62,368.16,397.6,367.57,397.57z"/>
	<path class="st84" d="M194.57,384.2c1.1-1.27,0.7-3.39,2.43-4.31c-0.82,2.54-1.9,5.04-2.42,7.64c-2.09,10.55-2.63,21.08,1.41,31.38
		c0.61,1.54,1.38,3.02,2.08,4.53c-2.77-2.43-3.6-5.85-4.38-9.17C191.3,404.18,192.01,394.15,194.57,384.2z"/>
	<path class="st85" d="M198.86,424.69c0.64,0.55,1.28,1.09,1.93,1.64c3.96,4.62,9.05,6.54,14.92,5.28c6.42-1.38,6.14-2.91,7.6-9.12
		c0.72-3.07,0.98-6.25,1.49-9.38c0.06-0.36,0.33-0.68,0.68-0.96c-0.95,5.15-0.93,10.45-2.75,15.43c-0.92,2.51-3.02,3.58-5.26,4.47
		c-5.86,2.33-15.6-1.28-18.6-6.89C198.79,425.04,198.86,424.85,198.86,424.69z"/>
	<path class="st86" d="M198.91,376.08c0.15,0.14,0.3,0.28,0.44,0.43c-0.79,1.14-1.59,2.27-2.38,3.41
		C196.87,378.26,198.19,377.32,198.91,376.08z"/>
	<path class="st87" d="M244.81,408.55c1.74-5.81,3.48-11.63,5.23-17.44c0.01-0.05,0.14-0.07,0.4-0.19
		c1.79,6.03,3.57,12.03,5.35,18.03c-3.49,0.74-7.01,0.17-10.52,0.28C244.94,409.25,244.78,408.91,244.81,408.55z"/>
	<path class="st40" d="M235.29,429.61c-0.12-0.15-0.23-0.29-0.35-0.44c2.44-5.99,4.04-12.25,6.04-18.38c0.75-2.31,1.37-4.67,2.05-7
		c0.68-0.91,0.71-2.04,1.08-3.05c0.23-0.64,0.16-1.69,1.31-1.7c-1.28,4.12-2.55,8.23-3.83,12.35c0.22,0.35,0.22,0.68-0.09,0.98
		c-1.69,4.24-2.91,8.63-4.29,12.97C236.73,426.83,236.37,428.38,235.29,429.61z"/>
	<path class="st88" d="M241.49,412.37c0.03-0.33,0.06-0.66,0.09-0.98c4.06,0.02,8.12,0.03,12.18,0.09c0.77,0.01,1.86-0.45,2.09,0.91
		C251.07,412.38,246.28,412.38,241.49,412.37z"/>
	<path class="st89" d="M325.31,408.09c1.6-5.52,3.2-11.04,4.8-16.57c2.63,5.49,4.24,11.25,5.86,16.99c0.05,0.66-0.4,0.76-0.9,0.77
		c-2.9,0.01-5.79,0.01-8.69,0C325.58,409.28,324.9,409.16,325.31,408.09z"/>
	<path class="st88" d="M321.6,412.48c0.14-0.35,0.28-0.7,0.43-1.06c4.21,0.01,8.42,0.01,12.62,0.07c0.49,0.01,1.71-0.58,1.21,0.9
		C331.11,412.42,326.35,412.45,321.6,412.48z"/>
	<path class="st90" d="M274.49,385.11c-0.8-3.12-0.16-6.3-0.37-9.45c-0.06-0.95-0.02-1.91-0.02-2.86c13.11,0,26.23,0.01,39.34,0.01
		c-0.04,1.82-0.08,3.64-0.11,5.47c-0.01,1-0.05,1.96-1.36,2.1c-1.52-3.64-4.68-4.5-8.17-4.83c-1.61-0.36-3.23-0.31-4.85-0.03
		c-1.08,0.46-2.12,1.07-3.25,1.34c-1.7,0.41-2.25,1.42-2.06,3.02c-1.23,2.17-3.17,1.81-5.11,1.44c-0.04-1.24-0.09-2.49-0.13-3.73
		c-0.36-2.52-0.36-2.52-4.3-2.08C277.35,376.15,275.34,378.16,274.49,385.11z"/>
	<path class="st91" d="M288.54,381.32c1.61-0.82,3.7,0.1,5.11-1.44c0.01,3.82,0.01,7.64,0.02,11.46c-1.71,0.01-3.42,0.01-5.13,0.02
		C288.54,388.01,288.54,384.66,288.54,381.32z"/>
	<path class="st92" d="M298.96,375.52c1.62-0.7,3.24-0.6,4.85,0.03C302.19,375.54,300.57,375.53,298.96,375.52z"/>
	<path class="st93" d="M288.54,405.23c0-1.91,0-3.82,0-5.74c4.79,0.01,4.79,0.01,4.68,4.83
		C291.91,405.88,290.12,405.02,288.54,405.23z"/>
	<path class="st94" d="M284.1,375.5c0.6-0.51,1.33-0.3,2.01-0.4c2.02-0.31,2.74,0.53,2.29,2.48c-0.14-0.02-0.28-0.06-0.41-0.13
		c0.17-1.37-0.32-2.05-1.8-1.88C285.51,375.65,284.8,375.53,284.1,375.5z"/>
	<path class="st95" d="M342.95,456.96c1.21,1.52,1.38,3.36,1.62,5.18c1.18,2.58,0.85,5.15-0.37,7.54c-0.66,1.29-1.77,2.51-3.54,1.27
		c-2.54-3.82-2.23-7.92-1.12-12.07C340.01,457.14,341.15,456.42,342.95,456.96z"/>
	<path class="st96" d="M340.66,470.95c2.35,0.85,2.91-0.89,3.43-2.47c0.68-2.05,0.32-4.22,0.48-6.34c0.99-0.08,1.38,0.39,1.35,1.37
		c-0.02,1,0.05,1.99,0.08,2.99c-0.1,1.83-0.75,3.47-2.26,4.53C342.83,471.68,341.64,472.39,340.66,470.95z"/>
	<path class="st97" d="M246.76,406.64c1.08-3.69,2.16-7.37,3.24-11.06c0.16-0.01,0.31-0.01,0.47-0.02
		c1.15,4.01,2.31,8.02,3.46,12.03c-2.1,0.55-4.23,0.15-6.35,0.24C246.8,407.87,246.36,407.5,246.76,406.64z"/>
	<path class="st98" d="M326.85,407.57c1.13-3.91,2.26-7.83,3.48-12.09c1.94,4.07,2.71,8.16,4.01,12.07
		C331.85,408.06,329.35,408.02,326.85,407.57z"/>
	<path class="st97" d="M340.12,460.14c0.16-1.09,0.22-2.34,1.72-2.36c1.36-0.02,1.31,1.31,1.46,2.1c0.47,2.65,0.45,5.34,0.03,7.99
		c-0.14,0.89-0.17,2.32-1.57,2.29c-1.28-0.03-1.44-1.23-1.6-2.25C339.8,465.32,339.9,462.73,340.12,460.14z"/>
</g>
</svg>
